<?xml version="1.0" encoding="utf-8"?>
<!-- Generator: Adobe Illustrator 24.1.1, SVG Export Plug-In . SVG Version: 6.00 Build 0)  -->
<svg version="1.1" id="Layer_1" xmlns="http://www.w3.org/2000/svg" xmlns:xlink="http://www.w3.org/1999/xlink" x="0px" y="0px"
	 viewBox="0 0 512 512" style="enable-background:new 0 0 512 512;" xml:space="preserve">
<g>
	<path d="M113.8,369.8v28.4c15.7,0,28.4,12.8,28.4,28.4c0,15.7-12.8,28.4-28.4,28.4c-15.7,0-28.4-12.8-28.4-28.4
		c0-15.7,12.8-28.4,28.4-28.4V369.8v-28.4c-47.1,0-85.3,38.2-85.3,85.3c0,47.1,38.2,85.3,85.3,85.3c47.1,0,85.3-38.2,85.3-85.3
		c0-47.1-38.2-85.3-85.3-85.3V369.8z"/>
	<path d="M113.8,28.4v28.4c15.7,0,28.4,12.8,28.4,28.4c0,15.7-12.8,28.4-28.4,28.4c-15.7,0-28.4-12.8-28.4-28.4
		c0-15.7,12.8-28.4,28.4-28.4V28.4V0C66.6,0,28.5,38.2,28.4,85.3c0,47.1,38.2,85.3,85.3,85.3c47.1,0,85.3-38.2,85.3-85.3
		c0-47.1-38.2-85.3-85.3-85.3V28.4z"/>
	<path d="M398.2,199.1v28.4c15.7,0,28.4,12.8,28.4,28.4c0,15.7-12.8,28.4-28.4,28.4c-15.7,0-28.4-12.8-28.4-28.4
		c0-15.7,12.8-28.4,28.4-28.4V199.1v-28.4c-47.1,0-85.3,38.2-85.3,85.3c0,47.1,38.2,85.3,85.3,85.3c47.1,0,85.3-38.2,85.3-85.3
		c0-47.1-38.2-85.3-85.3-85.3V199.1z"/>
	<path d="M85.3,142.2v227.6c0,15.7,12.7,28.4,28.4,28.4s28.4-12.7,28.4-28.4V142.2c0-15.7-12.7-28.4-28.4-28.4
		S85.3,126.5,85.3,142.2"/>
	<path d="M85.3,142.2c0,78.6,63.7,142.2,142.2,142.2l113.8,0c15.7,0,28.4-12.7,28.4-28.4c0-15.7-12.7-28.4-28.4-28.4H227.6
		c-47.1-0.1-85.2-38.2-85.3-85.3c0-15.7-12.7-28.4-28.4-28.4S85.3,126.5,85.3,142.2z"/>
</g>
</svg>
